<svg data-v-423bf9ae="" xmlns="http://www.w3.org/2000/svg" viewBox="0 0 365 90" class="iconLeft"><!----><!----><!----><g data-v-423bf9ae="" id="34007e28-7a9b-4cda-a14e-e4ac4868e7c8" fill="#2E2B3C" transform="matrix(5.946481575088099,0,0,5.946481575088099,72.07351880492675,-8.429138222944673)"><path d="M2.73 5.39L2.73 5.39L2.73 5.39Q2.73 5.40 2.72 5.61L2.72 5.61L2.72 5.61Q2.72 5.81 2.72 6.15L2.72 6.15L2.72 6.15Q2.71 6.49 2.71 6.95L2.71 6.95L2.71 6.95Q2.71 7.40 2.70 7.90L2.70 7.90L2.70 7.90Q2.69 8.40 2.69 8.93L2.69 8.93L2.69 8.93Q2.69 9.45 2.68 9.94L2.68 9.94L2.68 9.94Q2.68 10.43 2.68 10.86L2.68 10.86L2.68 10.86Q2.67 11.28 2.67 11.58L2.67 11.58L2.67 11.99L2.67 11.99Q2.77 12.00 2.86 12.00L2.86 12.00L2.86 12.00Q2.95 12.00 3.05 12.00L3.05 12.00L3.05 12.00Q3.34 12.00 3.74 11.95L3.74 11.95L3.74 11.95Q4.14 11.89 4.60 11.71L4.60 11.71L4.60 11.71Q5.06 11.53 5.56 11.19L5.56 11.19L5.56 11.19Q6.06 10.84 6.55 10.25L6.55 10.25L6.55 10.25Q7.13 9.56 7.38 8.86L7.38 8.86L7.38 8.86Q7.63 8.16 7.63 7.46L7.63 7.46L7.63 7.46Q7.63 6.88 7.51 6.45L7.51 6.45L7.51 6.45Q7.38 6.02 7.16 5.72L7.16 5.72L7.16 5.72Q6.94 5.42 6.63 5.24L6.63 5.24L6.63 5.24Q6.33 5.05 5.96 4.95L5.96 4.95L5.96 4.95Q5.60 4.85 5.19 4.81L5.19 4.81L5.19 4.81Q4.77 4.78 4.34 4.78L4.34 4.78L4.34 4.78Q4.03 4.78 3.63 4.85L3.63 4.85L3.63 4.85Q3.23 4.93 2.80 5.04L2.80 5.04L2.80 5.04Q2.37 5.16 1.96 5.29L1.96 5.29L1.96 5.29Q1.54 5.42 1.20 5.54L1.20 5.54L1.20 5.54Q0.86 5.65 0.64 5.73L0.64 5.73L0.64 5.73Q0.41 5.80 0.36 5.80L0.36 5.80L0.36 5.80Q0.29 5.74 0.25 5.67L0.25 5.67L0.25 5.67Q0.21 5.63 0.17 5.58L0.17 5.58L0.17 5.58Q0.14 5.54 0.14 5.54L0.14 5.54L0.14 5.54Q0.14 5.52 0.16 5.50L0.16 5.50L0.16 5.50Q0.17 5.49 0.21 5.47L0.21 5.47L0.21 5.47Q0.24 5.45 0.31 5.43L0.31 5.43L0.31 5.43Q0.29 5.39 0.28 5.38L0.28 5.38L0.28 5.38Q0.28 5.37 0.28 5.35L0.28 5.35L0.28 5.35Q0.28 5.33 0.29 5.31L0.29 5.31L0.29 5.31Q0.29 5.29 0.35 5.27L0.35 5.27L0.35 5.27Q0.25 5.22 0.21 5.19L0.21 5.19L0.21 5.19Q0.16 5.15 0.15 5.13L0.15 5.13L0.15 5.13Q0.14 5.11 0.15 5.10L0.15 5.10L0.15 5.10Q0.16 5.09 0.16 5.10L0.16 5.10L0.16 5.10Q0.16 5.08 0.18 5.07L0.18 5.07L0.18 5.07Q0.21 5.07 0.23 5.03L0.23 5.03L0.23 5.03Q0.23 5.02 0.27 4.94L0.27 4.94L0.27 4.94Q0.31 4.86 0.44 4.75L0.44 4.75L0.44 4.75Q0.57 4.64 0.82 4.53L0.82 4.53L0.82 4.53Q1.07 4.41 1.48 4.32L1.48 4.32L1.48 4.32Q1.63 4.29 1.87 4.23L1.87 4.23L1.87 4.23Q2.12 4.17 2.44 4.12L2.44 4.12L2.44 4.12Q2.77 4.06 3.15 4.02L3.15 4.02L3.15 4.02Q3.53 3.98 3.95 3.98L3.95 3.98L3.95 3.98Q5.09 3.98 5.97 4.32L5.97 4.32L5.97 4.32Q6.86 4.66 7.45 5.22L7.45 5.22L7.45 5.22Q8.05 5.79 8.36 6.54L8.36 6.54L8.36 6.54Q8.67 7.28 8.67 8.09L8.67 8.09L8.67 8.09Q8.67 8.57 8.54 9.08L8.54 9.08L8.54 9.08Q8.41 9.58 8.17 10.08L8.17 10.08L8.17 10.08Q7.92 10.57 7.58 11.03L7.58 11.03L7.58 11.03Q7.24 11.48 6.82 11.86L6.82 11.86L6.82 11.86Q6.39 12.24 5.90 12.53L5.90 12.53L5.90 12.53Q5.41 12.82 4.87 12.97L4.87 12.97L4.87 12.97Q4.33 13.12 3.89 13.18L3.89 13.18L3.89 13.18Q3.45 13.23 3.08 13.23L3.08 13.23L3.08 13.23Q2.59 13.23 2.28 13.18L2.28 13.18L2.28 13.18Q1.98 13.12 1.81 13.05L1.81 13.05L1.81 13.05Q1.64 12.97 1.58 12.91L1.58 12.91L1.58 12.91Q1.52 12.84 1.52 12.82L1.52 12.82L1.52 12.82Q1.48 12.78 1.48 12.69L1.48 12.69L1.48 12.69Q1.49 12.52 1.52 11.74L1.52 11.74L1.52 11.74Q1.53 11.42 1.55 10.92L1.55 10.92L1.55 10.92Q1.57 10.42 1.59 9.71L1.59 9.71L1.59 9.71Q1.61 9.00 1.65 8.05L1.65 8.05L1.65 8.05Q1.69 7.10 1.74 5.87L1.74 5.87L1.74 5.87Q1.74 5.73 1.81 5.67L1.81 5.67L1.81 5.67Q1.89 5.62 2.01 5.59L2.01 5.59L2.01 5.59Q2.13 5.56 2.26 5.54L2.26 5.54L2.26 5.54Q2.39 5.52 2.50 5.43L2.50 5.43L2.50 5.43Q2.54 5.40 2.59 5.38L2.59 5.38L2.59 5.38Q2.64 5.35 2.67 5.35L2.67 5.35L2.67 5.35Q2.73 5.35 2.73 5.39ZM13.73 9.50L13.73 9.50L13.73 9.50Q13.74 9.73 13.69 10.08L13.69 10.08L13.69 10.08Q13.64 10.42 13.58 10.82L13.58 10.82L13.58 10.82Q13.52 11.21 13.47 11.62L13.47 11.62L13.47 11.62Q13.41 12.03 13.41 12.39L13.41 12.39L13.41 12.39Q13.41 12.63 13.45 12.85L13.45 12.85L13.45 12.85Q13.48 13.06 13.56 13.22L13.56 13.22L13.56 13.22Q13.61 13.31 13.61 13.38L13.61 13.38L13.61 13.38Q13.62 13.45 13.60 13.50L13.60 13.50L13.60 13.50Q13.59 13.55 13.58 13.59L13.58 13.59L13.58 13.59Q13.56 13.62 13.58 13.66L13.58 13.66L13.58 13.66Q13.59 13.69 13.57 13.74L13.57 13.74L13.57 13.74Q13.55 13.78 13.51 13.82L13.51 13.82L13.51 13.82Q13.47 13.86 13.42 13.87L13.42 13.87L13.42 13.87Q13.36 13.89 13.32 13.86L13.32 13.86L13.32 13.86Q13.25 13.82 13.20 13.81L13.20 13.81L13.20 13.81Q13.16 13.80 13.13 13.81L13.13 13.81L13.13 13.81Q13.10 13.82 13.07 13.84L13.07 13.84L13.07 13.84Q13.05 13.85 13.02 13.84L13.02 13.84L13.02 13.84Q12.90 13.77 12.76 13.69L12.76 13.69L12.76 13.69Q12.63 13.61 12.58 13.51L12.58 13.51L12.58 13.51Q12.56 13.47 12.53 13.38L12.53 13.38L12.53 13.38Q12.51 13.28 12.49 13.15L12.49 13.15L12.49 13.15Q12.48 13.02 12.46 12.87L12.46 12.87L12.46 12.87Q12.45 12.72 12.44 12.58L12.44 12.58L12.44 12.58Q12.22 13.00 11.96 13.28L11.96 13.28L11.96 13.28Q11.70 13.56 11.45 13.73L11.45 13.73L11.45 13.73Q11.19 13.90 10.94 13.97L10.94 13.97L10.94 13.97Q10.69 14.03 10.49 14.03L10.49 14.03L10.49 14.03Q10.27 14.03 10.11 13.98L10.11 13.98L10.11 13.98Q9.95 13.92 9.86 13.85L9.86 13.85L9.86 13.85Q9.53 13.51 9.39 13.31L9.39 13.31L9.39 13.31Q9.25 13.10 9.26 12.97L9.26 12.97L9.26 12.97Q9.30 12.53 9.47 12.16L9.47 12.16L9.47 12.16Q9.65 11.79 9.92 11.48L9.92 11.48L9.92 11.48Q10.19 11.17 10.52 10.92L10.52 10.92L10.52 10.92Q10.85 10.67 11.19 10.48L11.19 10.48L11.19 10.48Q11.54 10.28 11.87 10.15L11.87 10.15L11.87 10.15Q12.21 10.01 12.48 9.93L12.48 9.93L12.48 9.93Q12.47 9.56 12.45 9.29L12.45 9.29L12.45 9.29Q12.43 9.01 12.40 8.88L12.40 8.88L12.40 8.88Q12.30 8.46 12.09 8.25L12.09 8.25L12.09 8.25Q11.87 8.04 11.57 8.04L11.57 8.04L11.57 8.04Q11.38 8.04 11.19 8.18L11.19 8.18L11.19 8.18Q10.99 8.33 10.83 8.57L10.83 8.57L10.83 8.57Q10.68 8.82 10.58 9.14L10.58 9.14L10.58 9.14Q10.48 9.46 10.47 9.82L10.47 9.82L10.47 9.82Q10.47 9.91 10.48 9.99L10.48 9.99L10.48 9.99Q10.49 10.07 10.50 10.16L10.50 10.16L10.50 10.16Q10.51 10.21 10.47 10.23L10.47 10.23L10.47 10.23Q10.43 10.25 10.38 10.26L10.38 10.26L10.38 10.26Q10.32 10.27 10.26 10.27L10.26 10.27L10.26 10.27Q10.20 10.28 10.16 10.29L10.16 10.29L10.16 10.29Q10.12 10.31 10.10 10.31L10.10 10.31L10.10 10.31Q10.08 10.32 10.06 10.31L10.06 10.31L10.06 10.31Q10.04 10.29 10.01 10.27L10.01 10.27L10.01 10.27Q9.98 10.24 9.93 10.20L9.93 10.20L9.93 10.20Q9.87 10.16 9.81 10.13L9.81 10.13L9.81 10.13Q9.75 10.10 9.71 10.08L9.71 10.08L9.71 10.08Q9.67 10.06 9.64 10.05L9.64 10.05L9.64 10.05Q9.60 10.03 9.60 10.00L9.60 10.00L9.60 10.00Q9.60 9.58 9.79 9.13L9.79 9.13L9.79 9.13Q9.98 8.67 10.30 8.30L10.30 8.30L10.30 8.30Q10.62 7.93 11.04 7.69L11.04 7.69L11.04 7.69Q11.46 7.45 11.93 7.45L11.93 7.45L11.93 7.45Q12.31 7.45 12.59 7.57L12.59 7.57L12.59 7.57Q12.87 7.68 13.07 7.87L13.07 7.87L13.07 7.87Q13.27 8.05 13.40 8.28L13.40 8.28L13.40 8.28Q13.52 8.50 13.59 8.73L13.59 8.73L13.59 8.73Q13.67 8.96 13.70 9.16L13.70 9.16L13.70 9.16Q13.73 9.37 13.73 9.50ZM12.50 11.39L12.50 10.71L12.50 10.71Q12.29 10.79 12.04 10.91L12.04 10.91L12.04 10.91Q11.80 11.03 11.55 11.20L11.55 11.20L11.55 11.20Q11.29 11.37 11.04 11.59L11.04 11.59L11.04 11.59Q10.79 11.81 10.57 12.07L10.57 12.07L10.57 12.07Q10.31 12.38 10.19 12.62L10.19 12.62L10.19 12.62Q10.08 12.86 10.05 13.03L10.05 13.03L10.05 13.03Q10.02 13.19 10.06 13.29L10.06 13.29L10.06 13.29Q10.10 13.38 10.16 13.41L10.16 13.41L10.16 13.41Q10.37 13.49 10.60 13.42L10.60 13.42L10.60 13.42Q10.83 13.36 11.06 13.19L11.06 13.19L11.06 13.19Q11.29 13.02 11.50 12.79L11.50 12.79L11.50 12.79Q11.72 12.55 11.91 12.30L11.91 12.30L11.91 12.30Q12.10 12.05 12.25 11.81L12.25 11.81L12.25 11.81Q12.40 11.57 12.50 11.39L12.50 11.39ZM19.02 13.21L19.02 13.21L19.02 13.21Q19.02 13.29 18.97 13.39L18.97 13.39L18.97 13.39Q18.91 13.49 18.80 13.49L18.80 13.49L18.80 13.49Q18.74 13.49 18.70 13.45L18.70 13.45L18.70 13.45Q18.67 13.42 18.63 13.42L18.63 13.42L18.63 13.42Q18.59 13.42 18.54 13.45L18.54 13.45L18.54 13.45Q18.50 13.49 18.40 13.49L18.40 13.49L18.40 13.49Q18.26 13.49 18.16 13.39L18.16 13.39L18.16 13.39Q18.06 13.29 18.00 13.14L18.00 13.14L18.00 13.14Q17.94 12.98 17.91 12.80L17.91 12.80L17.91 12.80Q17.88 12.62 17.88 12.46L17.88 12.46L17.88 12.46Q17.88 12.15 17.90 11.76L17.90 11.76L17.90 11.76Q17.92 11.37 17.95 10.95L17.95 10.95L17.95 10.95Q17.99 10.54 18.01 10.13L18.01 10.13L18.01 10.13Q18.03 9.72 18.03 9.37L18.03 9.37L18.03 9.37Q18.03 8.91 17.97 8.65L17.97 8.65L17.97 8.65Q17.91 8.39 17.75 8.39L17.75 8.39L17.75 8.39Q17.60 8.41 17.45 8.65L17.45 8.65L17.45 8.65Q17.29 8.89 17.12 9.26L17.12 9.26L17.12 9.26Q16.96 9.63 16.80 10.10L16.80 10.10L16.80 10.10Q16.65 10.57 16.50 11.06L16.50 11.06L16.50 11.06Q16.35 11.55 16.22 12.01L16.22 12.01L16.22 12.01Q16.09 12.47 15.99 12.83L15.99 12.83L15.99 12.83Q15.89 13.19 15.81 13.42L15.81 13.42L15.81 13.42Q15.74 13.64 15.71 13.64L15.71 13.64L15.71 13.64Q15.65 13.64 15.63 13.61L15.63 13.61L15.63 13.61Q15.60 13.59 15.58 13.56L15.58 13.56L15.58 13.56Q15.55 13.54 15.52 13.51L15.52 13.51L15.52 13.51Q15.48 13.49 15.42 13.49L15.42 13.49L15.42 13.49Q15.35 13.49 15.33 13.50L15.33 13.50L15.33 13.50Q15.31 13.51 15.29 13.54L15.29 13.54L15.29 13.54Q15.26 13.56 15.22 13.57L15.22 13.57L15.22 13.57Q15.18 13.58 15.07 13.58L15.07 13.58L15.07 13.58Q14.95 13.58 14.83 13.52L14.83 13.52L14.83 13.52Q14.71 13.46 14.71 13.33L14.71 13.33L14.71 13.33Q14.71 13.25 14.74 12.99L14.74 12.99L14.74 12.99Q14.77 12.74 14.80 12.36L14.80 12.36L14.80 12.36Q14.84 11.99 14.89 11.53L14.89 11.53L14.89 11.53Q14.93 11.07 14.97 10.58L14.97 10.58L14.97 10.58Q15.00 10.08 15.03 9.59L15.03 9.59L15.03 9.59Q15.06 9.10 15.06 8.65L15.06 8.65L15.06 8.65Q15.06 8.44 15.05 8.25L15.05 8.25L15.05 8.25Q15.05 8.06 15.05 7.89L15.05 7.89L15.05 7.89Q15.05 7.85 15.09 7.85L15.09 7.85L15.09 7.85Q15.17 7.85 15.21 7.88L15.21 7.88L15.21 7.88Q15.26 7.91 15.28 7.94L15.28 7.94L15.28 7.94Q15.30 7.98 15.30 8.01L15.30 8.01L15.30 8.01Q15.31 8.04 15.31 8.04L15.31 8.04L15.31 8.04Q15.33 8.04 15.36 8.02L15.36 8.02L15.36 8.02Q15.39 7.99 15.42 7.96L15.42 7.96L15.42 7.96Q15.45 7.94 15.48 7.91L15.48 7.91L15.48 7.91Q15.50 7.89 15.52 7.89L15.52 7.89L15.59 7.89L15.59 7.89Q15.70 7.89 15.74 7.86L15.74 7.86L15.74 7.86Q15.78 7.83 15.79 7.79L15.79 7.79L15.79 7.79Q15.81 7.75 15.82 7.72L15.82 7.72L15.82 7.72Q15.83 7.69 15.86 7.69L15.86 7.69L15.86 7.69Q15.88 7.69 15.92 7.72L15.92 7.72L15.92 7.72Q15.96 7.75 15.99 7.82L15.99 7.82L15.99 7.82Q16.03 7.90 16.06 8.01L16.06 8.01L16.06 8.01Q16.08 8.13 16.08 8.29L16.08 8.29L16.08 8.29Q16.08 8.51 16.07 8.85L16.07 8.85L16.07 8.85Q16.05 9.18 16.03 9.56L16.03 9.56L16.03 9.56Q16.00 9.94 15.98 10.33L15.98 10.33L15.98 10.33Q15.96 10.71 15.96 11.03L15.96 11.03L15.96 11.03Q16.03 10.73 16.14 10.37L16.14 10.37L16.14 10.37Q16.24 10.01 16.38 9.65L16.38 9.65L16.38 9.65Q16.52 9.28 16.69 8.92L16.69 8.92L16.69 8.92Q16.85 8.57 17.04 8.30L17.04 8.30L17.04 8.30Q17.23 8.03 17.45 7.86L17.45 7.86L17.45 7.86Q17.66 7.69 17.89 7.69L17.89 7.69L17.89 7.69Q18.26 7.69 18.49 7.83L18.49 7.83L18.49 7.83Q18.73 7.96 18.87 8.20L18.87 8.20L18.87 8.20Q19.00 8.44 19.06 8.76L19.06 8.76L19.06 8.76Q19.11 9.08 19.11 9.45L19.11 9.45L19.11 9.45Q19.11 9.77 19.08 10.11L19.08 10.11L19.08 10.11Q19.05 10.46 19.02 10.80L19.02 10.80L19.02 10.80Q18.99 11.15 18.97 11.48L18.97 11.48L18.97 11.48Q18.94 11.82 18.94 12.11L18.94 12.11L18.94 12.11Q18.94 12.48 18.98 12.77L18.98 12.77L18.98 12.77Q19.02 13.06 19.02 13.21ZM25.01 11.40L25.01 11.40L25.01 11.40Q25.01 11.79 24.83 12.20L24.83 12.20L24.83 12.20Q24.66 12.60 24.35 12.93L24.35 12.93L24.35 12.93Q24.04 13.26 23.60 13.47L23.60 13.47L23.60 13.47Q23.15 13.69 22.60 13.69L22.60 13.69L22.60 13.69Q22.15 13.69 21.69 13.49L21.69 13.49L21.69 13.49Q21.23 13.30 20.86 12.94L20.86 12.94L20.86 12.94Q20.49 12.58 20.25 12.07L20.25 12.07L20.25 12.07Q20.02 11.56 20.02 10.92L20.02 10.92L20.02 10.92Q20.02 10.29 20.27 9.73L20.27 9.73L20.27 9.73Q20.51 9.17 20.90 8.75L20.90 8.75L20.90 8.75Q21.30 8.33 21.81 8.08L21.81 8.08L21.81 8.08Q22.32 7.83 22.86 7.83L22.86 7.83L22.86 7.83Q23.36 7.83 23.70 7.97L23.70 7.97L23.70 7.97Q24.05 8.10 24.26 8.28L24.26 8.28L24.26 8.28Q24.47 8.46 24.56 8.65L24.56 8.65L24.56 8.65Q24.66 8.85 24.66 8.96L24.66 8.96L24.66 8.96Q24.66 9.22 24.55 9.39L24.55 9.39L24.55 9.39Q24.44 9.55 24.30 9.63L24.30 9.63L24.30 9.63Q24.16 9.71 24.03 9.72L24.03 9.72L24.03 9.72Q23.91 9.73 23.87 9.68L23.87 9.68L23.87 9.68Q23.84 9.65 23.81 9.65L23.81 9.65L23.81 9.65Q23.78 9.65 23.75 9.67L23.75 9.67L23.75 9.67Q23.71 9.68 23.68 9.69L23.68 9.69L23.68 9.69Q23.65 9.71 23.63 9.69L23.63 9.69L23.63 9.69Q23.60 9.68 23.63 9.63L23.63 9.63L23.63 9.63Q23.66 9.58 23.66 9.55L23.66 9.55L23.66 9.55Q23.66 9.49 23.66 9.41L23.66 9.41L23.66 9.41Q23.65 9.33 23.69 9.24L23.69 9.24L23.69 9.24Q23.75 9.12 23.74 8.97L23.74 8.97L23.74 8.97Q23.73 8.83 23.64 8.70L23.64 8.70L23.64 8.70Q23.54 8.57 23.35 8.48L23.35 8.48L23.35 8.48Q23.15 8.39 22.85 8.39L22.85 8.39L22.85 8.39Q22.63 8.39 22.33 8.53L22.33 8.53L22.33 8.53Q22.03 8.67 21.76 8.98L21.76 8.98L21.76 8.98Q21.49 9.28 21.30 9.75L21.30 9.75L21.30 9.75Q21.11 10.22 21.11 10.87L21.11 10.87L21.11 10.87Q21.11 11.15 21.18 11.46L21.18 11.46L21.18 11.46Q21.25 11.76 21.44 12.02L21.44 12.02L21.44 12.02Q21.62 12.28 21.94 12.45L21.94 12.45L21.94 12.45Q22.25 12.62 22.74 12.62L22.74 12.62L22.74 12.62Q23.06 12.62 23.33 12.53L23.33 12.53L23.33 12.53Q23.60 12.44 23.82 12.30L23.82 12.30L23.82 12.30Q24.04 12.17 24.21 12.00L24.21 12.00L24.21 12.00Q24.38 11.84 24.49 11.69L24.49 11.69L24.49 11.69Q24.61 11.55 24.67 11.44L24.67 11.44L24.67 11.44Q24.74 11.33 24.75 11.30L24.75 11.30L24.75 11.30Q24.78 11.27 24.82 11.25L24.82 11.25L24.82 11.25Q24.86 11.23 24.90 11.24L24.90 11.24L24.90 11.24Q24.94 11.25 24.98 11.29L24.98 11.29L24.98 11.29Q25.01 11.33 25.01 11.40ZM30.30 11.01L30.30 11.01L30.30 11.01Q30.30 11.08 30.30 11.18L30.30 11.18L30.30 11.18Q30.31 11.29 30.31 11.42L30.31 11.42L30.31 11.42Q30.31 11.58 30.26 11.82L30.26 11.82L30.26 11.82Q30.21 12.07 30.11 12.33L30.11 12.33L30.11 12.33Q30.00 12.60 29.83 12.87L29.83 12.87L29.83 12.87Q29.65 13.13 29.39 13.34L29.39 13.34L29.39 13.34Q29.13 13.56 28.78 13.69L28.78 13.69L28.78 13.69Q28.42 13.82 27.97 13.82L27.97 13.82L27.97 13.82Q27.57 13.82 27.15 13.67L27.15 13.67L27.15 13.67Q26.73 13.51 26.38 13.19L26.38 13.19L26.38 13.19Q26.04 12.87 25.82 12.36L25.82 12.36L25.82 12.36Q25.59 11.86 25.59 11.16L25.59 11.16L25.59 11.16Q25.59 10.73 25.71 10.30L25.71 10.30L25.71 10.30Q25.82 9.88 26.01 9.50L26.01 9.50L26.01 9.50Q26.20 9.13 26.45 8.81L26.45 8.81L26.45 8.81Q26.71 8.49 26.99 8.26L26.99 8.26L26.99 8.26Q27.28 8.03 27.58 7.90L27.58 7.90L27.58 7.90Q27.88 7.77 28.17 7.77L28.17 7.77L28.17 7.77Q28.67 7.77 28.99 7.93L28.99 7.93L28.99 7.93Q29.32 8.09 29.51 8.32L29.51 8.32L29.51 8.32Q29.70 8.55 29.78 8.81L29.78 8.81L29.78 8.81Q29.86 9.08 29.86 9.29L29.86 9.29L29.86 9.29Q29.86 9.50 29.76 9.76L29.76 9.76L29.76 9.76Q29.66 10.02 29.44 10.26L29.44 10.26L29.44 10.26Q29.21 10.49 28.85 10.65L28.85 10.65L28.85 10.65Q28.49 10.81 27.96 10.81L27.96 10.81L27.96 10.81Q27.68 10.81 27.46 10.74L27.46 10.74L27.46 10.74Q27.23 10.66 27.06 10.54L27.06 10.54L27.06 10.54Q26.89 10.42 26.77 10.28L26.77 10.28L26.77 10.28Q26.65 10.14 26.57 10.01L26.57 10.01L26.57 10.01Q26.45 10.44 26.45 11.01L26.45 11.01L26.45 11.01Q26.45 11.40 26.56 11.71L26.56 11.71L26.56 11.71Q26.67 12.02 26.87 12.24L26.87 12.24L26.87 12.24Q27.07 12.46 27.34 12.57L27.34 12.57L27.34 12.57Q27.62 12.69 27.95 12.69L27.95 12.69L27.95 12.69Q28.36 12.69 28.66 12.55L28.66 12.55L28.66 12.55Q28.97 12.41 29.20 12.20L29.20 12.20L29.20 12.20Q29.43 11.98 29.60 11.73L29.60 11.73L29.60 11.73Q29.76 11.48 29.89 11.28L29.89 11.28L29.89 11.28Q30.01 11.07 30.10 10.93L30.10 10.93L30.10 10.93Q30.19 10.79 30.28 10.80L30.28 10.80L30.28 10.80Q30.32 10.80 30.32 10.87L30.32 10.87L30.32 10.87Q30.32 10.90 30.32 10.94L30.32 10.94L30.32 10.94Q30.31 10.97 30.30 11.01ZM28.24 8.46L28.24 8.46L28.24 8.46Q28.12 8.46 27.92 8.51L27.92 8.51L27.92 8.51Q27.73 8.57 27.51 8.70L27.51 8.70L27.51 8.70Q27.30 8.83 27.08 9.05L27.08 9.05L27.08 9.05Q26.87 9.27 26.71 9.61L26.71 9.61L26.71 9.61Q26.81 9.56 26.88 9.53L26.88 9.53L26.88 9.53Q26.95 9.50 26.98 9.50L26.98 9.50L26.98 9.50Q27.00 9.50 27.02 9.52L27.02 9.52L27.02 9.52Q27.18 9.79 27.42 9.90L27.42 9.90L27.42 9.90Q27.65 10.01 27.95 10.01L27.95 10.01L27.95 10.01Q28.18 10.01 28.35 9.94L28.35 9.94L28.35 9.94Q28.51 9.86 28.62 9.73L28.62 9.73L28.62 9.73Q28.73 9.61 28.78 9.46L28.78 9.46L28.78 9.46Q28.83 9.32 28.83 9.17L28.83 9.17L28.83 9.17Q28.83 8.87 28.67 8.66L28.67 8.66L28.67 8.66Q28.51 8.46 28.24 8.46ZM38.99 3.94L38.99 3.94L38.99 3.94Q39.23 3.94 39.54 3.98L39.54 3.98L39.54 3.98Q39.84 4.02 40.14 4.12L40.14 4.12L40.14 4.12Q40.43 4.21 40.69 4.36L40.69 4.36L40.69 4.36Q40.94 4.52 41.08 4.75L41.08 4.75L41.08 4.75Q41.25 4.87 41.38 5.11L41.38 5.11L41.38 5.11Q41.51 5.37 41.51 5.61L41.51 5.61L41.51 5.61Q41.51 5.87 41.42 6.08L41.42 6.08L41.42 6.08Q41.32 6.30 41.18 6.48L41.18 6.48L41.18 6.48Q41.04 6.66 40.87 6.79L40.87 6.79L40.87 6.79Q40.70 6.93 40.54 7.02L40.54 7.02L40.54 7.02Q40.39 7.12 40.27 7.16L40.27 7.16L40.27 7.16Q40.15 7.21 40.12 7.21L40.12 7.21L40.12 7.21Q40.09 7.21 40.01 7.18L40.01 7.18L40.01 7.18Q39.93 7.14 39.85 7.10L39.85 7.10L39.85 7.10Q39.76 7.05 39.66 6.98L39.66 6.98L39.66 6.98Q39.66 6.97 39.79 6.90L39.79 6.90L39.79 6.90Q39.92 6.82 40.08 6.67L40.08 6.67L40.08 6.67Q40.24 6.51 40.37 6.25L40.37 6.25L40.37 6.25Q40.50 6.00 40.50 5.62L40.50 5.62L40.50 5.62Q40.44 5.50 40.33 5.38L40.33 5.38L40.33 5.38Q40.22 5.27 40.05 5.19L40.05 5.19L40.05 5.19Q39.88 5.10 39.64 5.04L39.64 5.04L39.64 5.04Q39.40 4.99 39.06 4.99L39.06 4.99L39.06 4.99Q38.94 4.99 38.71 5.02L38.71 5.02L38.71 5.02Q38.47 5.06 38.15 5.15L38.15 5.15L38.15 5.15Q37.84 5.24 37.47 5.39L37.47 5.39L37.47 5.39Q37.11 5.54 36.74 5.79L36.74 5.79L36.74 5.79Q36.37 6.04 36.04 6.40L36.04 6.40L36.04 6.40Q35.70 6.75 35.44 7.22L35.44 7.22L35.44 7.22Q35.18 7.70 35.02 8.31L35.02 8.31L35.02 8.31Q34.87 8.93 34.87 9.71L34.87 9.71L34.87 9.71Q34.87 10.13 34.94 10.48L34.94 10.48L34.94 10.48Q35.01 10.82 35.12 11.10L35.12 11.10L35.12 11.10Q35.23 11.38 35.38 11.59L35.38 11.59L35.38 11.59Q35.53 11.81 35.70 11.98L35.70 11.98L35.70 11.98Q35.80 12.03 35.93 12.12L35.93 12.12L35.93 12.12Q36.06 12.20 36.28 12.28L36.28 12.28L36.28 12.28Q36.50 12.36 36.85 12.42L36.85 12.42L36.85 12.42Q37.20 12.48 37.74 12.48L37.74 12.48L37.74 12.48Q38.21 12.48 38.63 12.37L38.63 12.37L38.63 12.37Q39.05 12.26 39.41 12.09L39.41 12.09L39.41 12.09Q39.78 11.92 40.09 11.71L40.09 11.71L40.09 11.71Q40.39 11.50 40.63 11.30L40.63 11.30L40.63 11.30Q40.87 11.09 41.02 10.93L41.02 10.93L41.02 10.93Q41.18 10.76 41.24 10.67L41.24 10.67L41.24 10.67Q41.37 10.49 41.43 10.44L41.43 10.44L41.43 10.44Q41.48 10.39 41.52 10.39L41.52 10.39L41.52 10.39Q41.56 10.39 41.59 10.40L41.59 10.40L41.59 10.40Q41.62 10.40 41.65 10.40L41.65 10.40L41.65 10.40Q41.71 10.40 41.73 10.34L41.73 10.34L41.73 10.34Q41.74 10.28 41.76 10.28L41.76 10.28L41.76 10.28Q41.77 10.28 41.78 10.34L41.78 10.34L41.78 10.34Q41.79 10.39 41.79 10.47L41.79 10.47L41.79 10.47Q41.79 10.51 41.78 10.54L41.78 10.54L41.78 10.54Q41.77 10.58 41.77 10.62L41.77 10.62L41.77 10.62Q41.77 10.66 41.72 10.89L41.72 10.89L41.72 10.89Q41.67 11.13 41.52 11.45L41.52 11.45L41.52 11.45Q41.38 11.78 41.13 12.15L41.13 12.15L41.13 12.15Q40.88 12.52 40.48 12.83L40.48 12.83L40.48 12.83Q40.08 13.15 39.50 13.35L39.50 13.35L39.50 13.35Q38.93 13.56 38.15 13.56L38.15 13.56L38.15 13.56Q37.68 13.56 37.28 13.47L37.28 13.47L37.28 13.47Q36.88 13.38 36.56 13.26L36.56 13.26L36.56 13.26Q36.24 13.13 36.00 12.98L36.00 12.98L36.00 12.98Q35.75 12.82 35.59 12.69L35.59 12.69L35.59 12.69Q35.24 12.49 34.92 12.18L34.92 12.18L34.92 12.18Q34.60 11.87 34.35 11.44L34.35 11.44L34.35 11.44Q34.10 11.01 33.96 10.44L33.96 10.44L33.96 10.44Q33.81 9.87 33.81 9.15L33.81 9.15L33.81 9.15Q33.81 8.42 34.00 7.75L34.00 7.75L34.00 7.75Q34.19 7.08 34.54 6.50L34.54 6.50L34.54 6.50Q34.88 5.92 35.36 5.45L35.36 5.45L35.36 5.45Q35.84 4.98 36.42 4.64L36.42 4.64L36.42 4.64Q36.99 4.31 37.64 4.12L37.64 4.12L37.64 4.12Q38.29 3.94 38.99 3.94ZM46.72 9.50L46.72 9.50L46.72 9.50Q46.72 9.73 46.68 10.08L46.68 10.08L46.68 10.08Q46.63 10.42 46.57 10.82L46.57 10.82L46.57 10.82Q46.50 11.21 46.45 11.62L46.45 11.62L46.45 11.62Q46.40 12.03 46.40 12.39L46.40 12.39L46.40 12.39Q46.40 12.63 46.43 12.85L46.43 12.85L46.43 12.85Q46.46 13.06 46.55 13.22L46.55 13.22L46.55 13.22Q46.59 13.31 46.60 13.38L46.60 13.38L46.60 13.38Q46.60 13.45 46.59 13.50L46.59 13.50L46.59 13.50Q46.57 13.55 46.56 13.59L46.56 13.59L46.56 13.59Q46.55 13.62 46.56 13.66L46.56 13.66L46.56 13.66Q46.57 13.69 46.55 13.74L46.55 13.74L46.55 13.74Q46.53 13.78 46.49 13.82L46.49 13.82L46.49 13.82Q46.45 13.86 46.40 13.87L46.40 13.87L46.40 13.87Q46.35 13.89 46.31 13.86L46.31 13.86L46.31 13.86Q46.23 13.82 46.19 13.81L46.19 13.81L46.19 13.81Q46.14 13.80 46.11 13.81L46.11 13.81L46.11 13.81Q46.08 13.82 46.06 13.84L46.06 13.84L46.06 13.84Q46.03 13.85 46.00 13.84L46.00 13.84L46.00 13.84Q45.88 13.77 45.75 13.69L45.75 13.69L45.75 13.69Q45.61 13.61 45.57 13.51L45.57 13.51L45.57 13.51Q45.54 13.47 45.52 13.38L45.52 13.38L45.52 13.38Q45.49 13.28 45.48 13.15L45.48 13.15L45.48 13.15Q45.46 13.02 45.45 12.87L45.45 12.87L45.45 12.87Q45.43 12.72 45.42 12.58L45.42 12.58L45.42 12.58Q45.20 13.00 44.94 13.28L44.94 13.28L44.94 13.28Q44.69 13.56 44.43 13.73L44.43 13.73L44.43 13.73Q44.17 13.90 43.92 13.97L43.92 13.97L43.92 13.97Q43.67 14.03 43.47 14.03L43.47 14.03L43.47 14.03Q43.26 14.03 43.10 13.98L43.10 13.98L43.10 13.98Q42.94 13.92 42.85 13.85L42.85 13.85L42.85 13.85Q42.51 13.51 42.37 13.31L42.37 13.31L42.37 13.31Q42.23 13.10 42.25 12.97L42.25 12.97L42.25 12.97Q42.28 12.53 42.46 12.16L42.46 12.16L42.46 12.16Q42.64 11.79 42.90 11.48L42.90 11.48L42.90 11.48Q43.17 11.17 43.50 10.92L43.50 10.92L43.50 10.92Q43.83 10.67 44.18 10.48L44.18 10.48L44.18 10.48Q44.52 10.28 44.86 10.15L44.86 10.15L44.86 10.15Q45.19 10.01 45.47 9.93L45.47 9.93L45.47 9.93Q45.45 9.56 45.44 9.29L45.44 9.29L45.44 9.29Q45.42 9.01 45.38 8.88L45.38 8.88L45.38 8.88Q45.28 8.46 45.07 8.25L45.07 8.25L45.07 8.25Q44.86 8.04 44.56 8.04L44.56 8.04L44.56 8.04Q44.37 8.04 44.17 8.18L44.17 8.18L44.17 8.18Q43.98 8.33 43.82 8.57L43.82 8.57L43.82 8.57Q43.66 8.82 43.56 9.14L43.56 9.14L43.56 9.14Q43.46 9.46 43.46 9.82L43.46 9.82L43.46 9.82Q43.46 9.91 43.46 9.99L43.46 9.99L43.46 9.99Q43.47 10.07 43.48 10.16L43.48 10.16L43.48 10.16Q43.49 10.21 43.45 10.23L43.45 10.23L43.45 10.23Q43.42 10.25 43.36 10.26L43.36 10.26L43.36 10.26Q43.31 10.27 43.24 10.27L43.24 10.27L43.24 10.27Q43.18 10.28 43.14 10.29L43.14 10.29L43.14 10.29Q43.11 10.31 43.09 10.31L43.09 10.31L43.09 10.31Q43.07 10.32 43.05 10.31L43.05 10.31L43.05 10.31Q43.03 10.29 42.99 10.27L42.99 10.27L42.99 10.27Q42.96 10.24 42.91 10.20L42.91 10.20L42.91 10.20Q42.85 10.16 42.80 10.13L42.80 10.13L42.80 10.13Q42.74 10.10 42.69 10.08L42.69 10.08L42.69 10.08Q42.65 10.06 42.62 10.05L42.62 10.05L42.62 10.05Q42.59 10.03 42.59 10.00L42.59 10.00L42.59 10.00Q42.59 9.58 42.78 9.13L42.78 9.13L42.78 9.13Q42.96 8.67 43.28 8.30L43.28 8.30L43.28 8.30Q43.60 7.93 44.02 7.69L44.02 7.69L44.02 7.69Q44.44 7.45 44.91 7.45L44.91 7.45L44.91 7.45Q45.29 7.45 45.58 7.57L45.58 7.57L45.58 7.57Q45.86 7.68 46.05 7.87L46.05 7.87L46.05 7.87Q46.25 8.05 46.38 8.28L46.38 8.28L46.38 8.28Q46.50 8.50 46.58 8.73L46.58 8.73L46.58 8.73Q46.65 8.96 46.68 9.16L46.68 9.16L46.68 9.16Q46.71 9.37 46.72 9.50ZM45.48 11.39L45.48 10.71L45.48 10.71Q45.27 10.79 45.03 10.91L45.03 10.91L45.03 10.91Q44.78 11.03 44.53 11.20L44.53 11.20L44.53 11.20Q44.28 11.37 44.02 11.59L44.02 11.59L44.02 11.59Q43.77 11.81 43.55 12.07L43.55 12.07L43.55 12.07Q43.29 12.38 43.18 12.62L43.18 12.62L43.18 12.62Q43.06 12.86 43.03 13.03L43.03 13.03L43.03 13.03Q43.00 13.19 43.05 13.29L43.05 13.29L43.05 13.29Q43.09 13.38 43.14 13.41L43.14 13.41L43.14 13.41Q43.35 13.49 43.58 13.42L43.58 13.42L43.58 13.42Q43.81 13.36 44.04 13.19L44.04 13.19L44.04 13.19Q44.27 13.02 44.48 12.79L44.48 12.79L44.48 12.79Q44.70 12.55 44.89 12.30L44.89 12.30L44.89 12.30Q45.08 12.05 45.23 11.81L45.23 11.81L45.23 11.81Q45.38 11.57 45.48 11.39L45.48 11.39ZM49.18 4.38L49.18 4.38L49.18 4.38Q49.18 4.47 49.16 4.75L49.16 4.75L49.16 4.75Q49.15 5.03 49.13 5.42L49.13 5.42L49.13 5.42Q49.11 5.82 49.09 6.29L49.09 6.29L49.09 6.29Q49.06 6.75 49.03 7.22L49.03 7.22L49.03 7.22Q49.01 7.69 48.99 8.13L48.99 8.13L48.99 8.13Q48.97 8.57 48.96 8.89L48.96 8.89L48.96 8.89Q48.95 9.09 48.94 9.33L48.94 9.33L48.94 9.33Q48.94 9.57 48.94 9.84L48.94 9.84L48.94 9.84Q48.94 10.21 48.94 10.60L48.94 10.60L48.94 10.60Q48.95 10.99 48.95 11.38L48.95 11.38L48.95 11.38Q48.96 11.76 48.97 12.11L48.97 12.11L48.97 12.11Q48.98 12.46 48.99 12.74L48.99 12.74L48.99 12.74Q48.99 13.02 49.00 13.21L49.00 13.21L49.00 13.21Q49 13.40 49 13.45L49 13.45L49 13.45Q49 13.54 48.97 13.59L48.97 13.59L48.97 13.59Q48.94 13.64 48.89 13.66L48.89 13.66L48.89 13.66Q48.85 13.68 48.80 13.67L48.80 13.67L48.80 13.67Q48.75 13.66 48.72 13.64L48.72 13.64L48.72 13.64Q48.68 13.62 48.65 13.59L48.65 13.59L48.65 13.59Q48.63 13.56 48.62 13.55L48.62 13.55L48.62 13.55Q48.60 13.54 48.59 13.54L48.59 13.54L48.59 13.54Q48.58 13.55 48.58 13.60L48.58 13.60L48.58 13.60Q48.56 13.77 48.50 13.86L48.50 13.86L48.50 13.86Q48.44 13.95 48.37 13.98L48.37 13.98L48.37 13.98Q48.31 14.01 48.25 14L48.25 14L48.25 14Q48.20 13.99 48.19 13.95L48.19 13.95L48.19 13.95Q48.17 13.92 48.14 13.91L48.14 13.91L48.14 13.91Q48.11 13.90 48.08 13.90L48.08 13.90L48.08 13.90Q48.04 13.90 48.01 13.88L48.01 13.88L48.01 13.88Q47.98 13.86 47.97 13.81L47.97 13.81L47.97 13.81Q47.92 13.58 47.91 13.22L47.91 13.22L47.91 13.22Q47.89 12.86 47.89 12.41L47.89 12.41L47.89 12.41Q47.89 12.02 47.90 11.57L47.90 11.57L47.90 11.57Q47.91 11.12 47.91 10.64L47.91 10.64L47.91 10.64Q47.91 10.37 47.91 10.10L47.91 10.10L47.91 10.10Q47.91 9.83 47.89 9.55L47.89 9.55L47.89 9.12L47.89 9.12Q47.89 8.57 47.92 8.01L47.92 8.01L47.92 8.01Q47.95 7.45 47.99 6.94L47.99 6.94L47.99 6.94Q48.03 6.43 48.08 5.97L48.08 5.97L48.08 5.97Q48.13 5.52 48.16 5.17L48.16 5.17L48.16 5.17Q48.19 4.83 48.21 4.61L48.21 4.61L48.21 4.61Q48.23 4.39 48.23 4.33L48.23 4.33L48.23 4.33Q48.22 4.29 48.24 4.27L48.24 4.27L48.24 4.27Q48.25 4.25 48.29 4.24L48.29 4.24L48.29 4.24Q48.32 4.24 48.35 4.23L48.35 4.23L48.35 4.23Q48.38 4.23 48.41 4.22L48.41 4.22L48.41 4.22Q48.46 4.19 48.49 4.20L48.49 4.20L48.49 4.20Q48.52 4.21 48.54 4.23L48.54 4.23L48.54 4.23Q48.56 4.25 48.58 4.28L48.58 4.28L48.58 4.28Q48.60 4.30 48.63 4.30L48.63 4.30L48.63 4.30Q48.67 4.29 48.70 4.28L48.70 4.28L48.70 4.28Q48.72 4.26 48.74 4.24L48.74 4.24L48.74 4.24Q48.75 4.22 48.77 4.21L48.77 4.21L48.77 4.21Q48.79 4.20 48.82 4.20L48.82 4.20L48.82 4.20Q48.87 4.22 48.92 4.22L48.92 4.22L48.92 4.22Q48.97 4.22 48.97 4.20L48.97 4.20L48.97 4.20Q48.99 4.15 49.01 4.15L49.01 4.15L49.01 4.15Q49.04 4.16 49.08 4.19L49.08 4.19L49.08 4.19Q49.12 4.22 49.15 4.26L49.15 4.26L49.15 4.26Q49.18 4.30 49.18 4.38Z"></path></g><defs data-v-423bf9ae=""><linearGradient data-v-423bf9ae="" gradientTransform="rotate(25)" id="6fd8a585-5432-4795-bc6a-0d2e0e3ae07c" x1="0%" y1="0%" x2="100%" y2="0%"><stop data-v-423bf9ae="" offset="0%" style="stop-color: rgb(101, 102, 206); stop-opacity: 1;"></stop><stop data-v-423bf9ae="" offset="100%" style="stop-color: rgb(219, 193, 208); stop-opacity: 1;"></stop></linearGradient></defs><g data-v-423bf9ae="" id="81a9707d-cfae-4045-9418-7b9619a38ab8" transform="matrix(1.0496160061885318,0,0,1.0496160061885318,-19.40287192846337,-8.408059777825407)" stroke="none" fill="url(#6fd8a585-5432-4795-bc6a-0d2e0e3ae07c)"><path d="M43.333 93.97s5.25-4.803 5.917-9.97 6.083-18.5 6.083-18.5l5-8s10-15.417 9.167-24.083S66.167 17.833 58.083 14.5C53.917 13.417 50.5 14 50.5 14s-6.25-.75-8.417-5.583c-6.5-1.25-8.666 3.916-8.833 5.916-.082.982.359 2.225.828 3.236a2.229 2.229 0 0 0 2.81 1.165l7.445-2.817 3.25-.25s-2.77 1.458-6.52 2.708c-3.277 1.092-8.83 3.17-10.178 3.678-.2.075-.386.173-.56.295-1.086.761-5.273 3.69-6.575 4.485-1.5.917-4.917 8.167-4.583 10.584a9.324 9.324 0 0 0 1.63 1.215c1.105.643 2.495-.104 2.55-1.38l.07-1.585s.131-.904.26-2.05a7.468 7.468 0 0 1 3.99-5.785C32.494 25.335 33.833 25 33.833 25s9.417-4.5 13.25-3.417c-8.25 2.25-14.666 4.5-15.75 5.917s-2.083 5.5-1 6.583c.33.33.754.56 1.183.72.976.363 2.027-.305 2.087-1.344.069-1.197.147-2.687.147-3.292 0-1.084.667-2.917 3.917-3.917s10.988-4.01 13.072-2.843c2.083 1.167 4.761 1.426 4.761 1.426s4.333 2.25 3.75 5.417-3.333 8-3.333 8-3.667 13.333-4.084 16.5c-.416 3.167-3.916 8.5-3.916 8.5s-2.85 5.904-2 16.583c-3.834 2.584-2.834 5.334-2.834 5.334s.917 2.666.334 4c-.584 1.333-2.5 3.773-.084 4.803z"></path></g><!----></svg>